# xmcd
#
# Track frame offsets:
#	150
#	23888
#	43734
#	78623
#	96173
#	107703
#	121243
#	140041
#	168641
#	190349
#	208148
#
# Disc length: 3108 seconds
#
# Revision: 0
# Processed by: cddbd v1.5.1PL0 Copyright (c) Steve Scherf et al.
# Submitted via: dBpowerAMP V4.0
#
DISCID=a00c220b
DTITLE=Emilio Garcia - Ultrablues
DYEAR=1900
DGENRE=Blues
TTITLE0=01 - Ultrablues
TTITLE1=02 - el twist de la marmota
TTITLE2=03 - lila
TTITLE3=04 - fanqui
TTITLE4=05 - ablusiones
TTITLE5=06 - reblues
TTITLE6=07 - Sengo
TTITLE7=08 - sueños
TTITLE8=09 - vals para chile
TTITLE9=10 - de los angeles
TTITLE10=11 - playa del carmen
EXTD=
EXTT0=
EXTT1=
EXTT2=
EXTT3=
EXTT4=
EXTT5=
EXTT6=
EXTT7=
EXTT8=
EXTT9=
EXTT10=
PLAYORDER=
